<svg viewBox="0 0 100 100" xmlns="http://www.w3.org/2000/svg" fill-rule="evenodd" clip-rule="evenodd" stroke-linejoin="round" stroke-miterlimit="1.414">
    <path fill="none" d="M0 0h100v100H0z"/>
    <circle cx="48.452" cy="59.729" r="26.886" fill="#00b17c" transform="translate(-40.107 -61.078) scale(1.8597)"/>
    <path d="M36.672 28.403l5.791 8.865c.562.892.429 2.489.17 3.031-.416.87-1.567 2.984-2.016 3.804a3.571 3.571 0 0 0-.306.762c-.381 1.305-.883 2.38 5.716 9.11l-4.987 5.343s-9.657-9.002-12.948-20.583c-.81-2.848-1.675-7.514 3.926-10.175 1.716-.815 3.608-1.832 4.654-.157z" fill="#fff"/>
    <path d="M71.598 63.329l-8.866-5.791c-.892-.561-2.49-.429-3.032-.17-.87.416-2.983 1.567-3.804 2.016a3.581 3.581 0 0 1-.76.307c-1.307.38-2.382.883-9.113-5.716l-5.342 4.986s9.002 9.657 20.584 12.947c2.848.81 7.515 1.676 10.175-3.926.815-1.715 1.832-3.607.158-4.653z" fill="#fff"/>
</svg>
