<svg viewBox="0 0 100 100" xmlns="http://www.w3.org/2000/svg" xmlns:serif="http://www.serif.com/" fill-rule="evenodd" clip-rule="evenodd" stroke-linejoin="round" stroke-miterlimit="1.414">
  <g serif:id="Phone Number" transform="translate(-125 -15)">
    <path fill="none" d="M125 15h100v100H125z"/>
    <clipPath id="a">
      <path d="M125 15h100v100H125z"/>
    </clipPath>
    <g clip-path="url(#a)">
      <path d="M175.323 15.001l.323.003.322.006.322.006.322.01.32.01.32.013.32.017.32.017.318.018.317.022.318.023.317.025.317.027.315.029.316.031.314.033.315.035.313.037.313.04.313.04.311.042.311.045.31.046.311.049.31.05.308.053.308.054.307.056.306.058.306.059.306.061.305.064.304.065.303.067.303.07.301.07.302.073.3.074.3.076.299.079.298.08.298.081.297.083.296.085.296.087.294.09.294.09.293.092.293.093.29.096.291.098.291.099.289.101.288.102.288.106.287.105.285.107.286.11.283.112.284.112.282.115.282.116.281.118.28.12.279.12.278.124.277.123.277.127.275.127.274.13.274.13.274.134.27.133.272.137.27.136.27.139.267.14.267.143.266.144.265.145.265.146.263.149.262.149.262.152.26.152.26.155.257.156.258.157.255.16.256.16.254.162.253.163.252.165.251.166.25.168.248.169.249.17.246.173.245.174.245.175.244.177.242.177.242.18.24.18.238.182.238.184.237.185.235.186.235.188.233.19.232.19.231.191.23.194.229.194.227.196.227.197.224.199.224.2.223.2.221.203.221.204.219.204.217.207.217.207.215.21.215.21.212.212.211.213.21.214.21.215.207.216.206.218.205.22.204.219.203.221.2.223.2.225.2.224.196.226.196.228.195.228.193.23.192.231.19.233.19.233.187.234.186.236.185.236.184.238.182.239.18.24.18.241.178.242.176.244.176.244.173.247.172.246.171.248.17.249.167.25.166.25.165.252.164.254.162.254.16.255.16.256.156.258.157.258.153.259.154.26.15.261.151.263.149.263.146.264.145.265.144.266.142.268.14.267.14.27.136.27.136.27.134.272.132.273.131.273.13.276.128.275.126.276.125.278.122.278.12.279.12.28.118.28.117.282.114.282.113.284.11.284.111.285.107.286.106.287.104.287.104.288.1.29.1.29.096.29.096.292.095.292.092.294.09.293.09.295.086.296.086.295.083.297.081.298.08.299.078.299.076.299.075.3.073.302.07.302.07.302.066.303.065.305.064.305.062.305.06.306.057.306.056.308.054.308.052.309.05.309.05.31.046.31.044.312.043.312.04.312.04.312.036.314.035.314.033.314.032.317.029.315.026.317.025.316.024.318.021.318.019.319.018.32.015.318.012.32.012.321.009.322.007.321.005.322.003.322L225 65v.324l-.004.322-.005.322-.007.321-.01.322-.01.32-.013.32-.015.32-.018.32-.019.318-.021.318-.024.318-.025.316-.026.318-.03.315-.031.316-.033.314-.035.314-.036.314-.04.313-.04.311-.043.312-.044.312-.047.31-.048.31-.05.31-.053.308-.054.308-.056.308-.057.306-.06.306-.062.305-.064.305-.065.305-.067.303-.069.302-.07.302-.073.301-.075.301-.076.3-.078.298-.08.3-.081.297-.083.297-.086.295-.087.296-.088.295-.091.293-.092.294-.095.292-.096.292-.096.29-.1.29-.1.29-.104.288-.104.287-.106.287-.107.286-.11.285-.11.284-.114.284-.114.283-.117.281-.118.28-.12.28-.12.279-.122.278-.125.278-.126.276-.128.276-.13.275-.13.273-.133.273-.134.272-.136.271-.137.27-.139.269-.14.267-.142.268-.144.266-.145.265-.146.264-.149.263-.15.263-.15.261-.155.26-.153.26-.157.257-.157.258-.16.256-.16.255-.161.254-.164.254-.165.251-.166.252-.168.25-.169.248-.171.248-.172.246-.173.247-.176.244-.176.244-.178.242-.18.24-.18.241-.182.24-.184.237-.185.236-.186.236-.188.234-.189.234-.19.232-.192.231-.193.23-.195.228-.196.228-.196.226-.2.225-.2.224-.2.223-.203.221-.204.22-.205.22-.206.217-.207.217-.21.215-.21.214-.211.212-.212.212-.215.21-.215.21-.217.207-.217.207-.219.204-.22.204-.222.202-.223.201-.224.2-.224.2-.227.196-.227.196-.229.195-.23.193-.23.191-.233.19-.233.19-.235.188-.235.186-.237.185-.238.184-.238.182-.24.18-.242.18-.242.177-.244.177-.245.175-.245.174-.246.172-.249.171-.248.169-.25.168-.251.166-.252.165-.253.163-.254.163-.256.16-.255.16-.258.156-.258.156-.26.155-.26.153-.261.151-.262.15-.263.148-.265.146-.265.145-.266.144-.267.142-.268.141-.269.139-.27.137-.271.136-.271.133-.274.134-.274.13-.274.13-.275.127-.277.127-.277.123-.278.124-.28.12-.279.12-.281.118-.282.116-.282.115-.284.112-.283.112-.286.11-.285.107-.287.106-.288.105-.288.102-.289.101-.29.1-.291.097-.291.096-.293.093-.293.093-.294.09-.294.09-.296.086-.296.085-.297.083-.298.082-.298.08-.299.078-.3.076-.3.074-.302.074-.301.07-.303.07-.303.066-.304.066-.305.063-.306.061-.306.06-.306.057-.307.056-.308.054-.309.053-.309.05-.31.049-.31.046-.312.045-.311.042-.313.041-.313.039-.313.037-.315.035-.314.033-.316.031-.315.03-.317.026-.317.025-.318.024-.317.021-.319.018-.32.018-.32.016-.319.013-.32.01-.322.01-.322.006-.322.006-.323.003L175 115l-.322-.001-.323-.003-.323-.006-.321-.006-.322-.01-.32-.01-.32-.013-.32-.016-.32-.018-.318-.018-.317-.021-.318-.024-.318-.025-.316-.027-.315-.029-.316-.03-.314-.034-.315-.035-.313-.037-.314-.039-.312-.04-.311-.043-.312-.045-.31-.046-.31-.049-.31-.05-.308-.053-.308-.054-.307-.056-.306-.058-.307-.059-.305-.061-.305-.063-.304-.066-.303-.067-.303-.07-.301-.07-.302-.073-.3-.074-.3-.076-.3-.079-.297-.08-.298-.08-.297-.084-.296-.085-.296-.087-.295-.089-.294-.09-.292-.093-.293-.093-.29-.096-.292-.098-.29-.099-.289-.1-.289-.103-.287-.105-.287-.106-.285-.107-.286-.11-.283-.112-.284-.112-.282-.115-.282-.116-.281-.118-.28-.12-.28-.12-.277-.124-.278-.123-.276-.127-.275-.127-.275-.13-.274-.13-.273-.134-.271-.133-.271-.136-.27-.137-.27-.139-.267-.14-.267-.143-.266-.144-.265-.145-.265-.146-.263-.148-.262-.15-.262-.151-.26-.153-.26-.155-.257-.156-.258-.157-.256-.159-.255-.16-.254-.163-.254-.163-.251-.165-.252-.166-.25-.168-.248-.169-.248-.17-.246-.173-.246-.174-.244-.175-.244-.177-.243-.177-.241-.18-.24-.18-.238-.182-.238-.184-.238-.185-.235-.186-.235-.188-.233-.19-.232-.19-.23-.19-.23-.194-.23-.195-.226-.196-.227-.197-.225-.199-.223-.2-.223-.2-.222-.203-.22-.204-.219-.204-.217-.207-.217-.207-.215-.21-.215-.21-.212-.212-.212-.212-.21-.214-.21-.215-.206-.217-.207-.218-.205-.22-.204-.219-.202-.221-.2-.223-.2-.224-.2-.225-.197-.226-.196-.228-.194-.228-.193-.23-.192-.231-.19-.232-.19-.234-.187-.234-.187-.236-.184-.236-.185-.238-.181-.239-.18-.24-.18-.241-.178-.242-.177-.244-.175-.244-.173-.247-.172-.246-.171-.248-.17-.249-.167-.25-.166-.25-.165-.252-.164-.254-.162-.254-.16-.255-.16-.256-.156-.258-.157-.258-.154-.259-.153-.26-.15-.261-.151-.263-.149-.263-.146-.264-.146-.265-.143-.266-.142-.268-.14-.267-.14-.27-.137-.269-.136-.27-.134-.273-.132-.273-.13-.273-.13-.275-.128-.276-.126-.276-.125-.278-.123-.278-.12-.279-.12-.28-.117-.28-.117-.281-.114-.283-.114-.284-.11-.284-.11-.285-.107-.286-.107-.287-.104-.287-.103-.288-.1-.29-.1-.29-.097-.29-.096-.292-.095-.292-.091-.294-.091-.293-.089-.295-.086-.296-.086-.295-.083-.297-.082-.298-.08-.299-.077-.299-.077-.299-.074-.3-.073-.302-.07-.302-.07-.302-.066-.303-.065-.305-.064-.305-.062-.305-.06-.306-.058-.306-.055-.308-.054-.308-.053-.309-.05-.308-.048-.31-.047-.31-.044-.313-.043-.312-.04-.311-.04-.313-.036-.314-.035-.314-.033-.314-.032-.316-.029-.315-.027-.318-.024-.316-.024-.318-.022-.318-.018-.319-.018-.319-.015-.32-.013-.32-.011-.32-.01-.322-.006-.321-.006-.322-.003-.322v-.648l.003-.322.006-.322.007-.321.009-.322.011-.32.013-.32.015-.32.018-.32.018-.318.022-.318.024-.318.024-.316.027-.317.029-.315.032-.317.033-.314.035-.314.036-.314.04-.312.04-.312.043-.312.044-.312.047-.31.048-.31.05-.309.053-.309.054-.308.055-.308.058-.306.06-.306.062-.305.064-.305.065-.305.067-.303.069-.302.07-.302.073-.301.074-.301.077-.3.078-.298.08-.299.08-.298.084-.297.086-.295.086-.296.089-.295.09-.293.092-.294.095-.292.096-.292.097-.29.1-.29.1-.29.103-.288.104-.287.107-.287.107-.286.11-.285.11-.284.114-.284.114-.282.117-.282.117-.28.12-.28.12-.279.123-.278.125-.278.126-.276.127-.275.13-.276.131-.273.132-.273.134-.272.136-.27.137-.27.14-.27.14-.267.142-.268.143-.266.146-.265.146-.264.149-.263.15-.263.15-.26.154-.261.154-.26.157-.257.156-.258.16-.256.16-.255.162-.254.164-.254.165-.251.166-.252.168-.25.169-.248.17-.248.173-.246.173-.247.175-.244.177-.244.178-.242.18-.24.18-.241.181-.24.185-.237.184-.236.187-.236.188-.234.188-.233.191-.233.192-.23.193-.231.194-.228.196-.228.197-.226.2-.224.2-.225.2-.223.202-.221.204-.22.205-.219.207-.218.207-.216.21-.215.21-.214.21-.213.213-.212.215-.21.215-.21.217-.207.217-.207.219-.204.22-.204.222-.202.223-.201.223-.2.225-.2.227-.196.227-.196.229-.194.23-.194.23-.191.232-.19.233-.19.235-.188.235-.186.238-.185.238-.184.238-.182.24-.18.241-.18.243-.177.244-.177.244-.175.246-.174.246-.172.248-.171.249-.169.25-.168.25-.166.252-.165.254-.163.254-.163.255-.16.256-.159.258-.157.257-.156.26-.155.26-.152.262-.152.262-.15.263-.148.265-.146.265-.145.266-.144.267-.142.268-.141.269-.139.27-.136.27-.137.272-.133.273-.134.274-.13.275-.13.275-.127.276-.127.278-.123.278-.124.28-.12.279-.12.281-.118.282-.116.282-.115.284-.112.283-.112.286-.11.285-.107.287-.105.287-.106.29-.102.288-.101.29-.099.291-.098.29-.096.294-.093.292-.093.294-.09.295-.09.296-.086.296-.085.297-.083.298-.082.298-.08.299-.078.3-.076.3-.074.302-.073.3-.07.304-.07.303-.067.304-.065.305-.064.305-.061.307-.06.306-.057.307-.056.308-.054.308-.053.31-.05.31-.049.31-.046.312-.045.311-.042.312-.04.314-.04.313-.037.315-.035.314-.033.316-.031.315-.03.316-.026.318-.025.318-.023.317-.022.319-.018.32-.017.319-.017.32-.012.32-.011.322-.01.321-.006.323-.006.323-.003L175 15l.323.001zm-.595 8l-.272.002-.271.005-.271.006-.271.008-.27.01-.27.01-.269.013-.268.014-.268.017-.268.017-.267.02-.266.021-.266.023-.266.024-.265.026-.264.028-.264.03-.263.03-.263.033-.262.034-.262.037-.262.036-.26.04-.26.04-.26.043-.26.043-.258.046-.258.046-.256.049-.257.05-.257.052-.255.054-.255.053-.255.057-.253.058-.254.06-.252.06-.253.062-.252.065-.25.065-.25.067-.25.069-.248.07-.249.07-.247.074-.248.074-.246.076-.247.078-.244.078-.245.08-.244.082-.243.083-.242.085-.242.086-.242.087-.24.09-.24.09-.24.092-.237.093-.237.094-.238.097-.237.097-.235.099-.235.1-.234.102-.233.103-.233.105-.232.105-.23.108-.232.108-.23.11-.228.112-.228.111-.228.114-.227.115-.226.118-.224.118-.224.118-.224.122-.223.121-.222.124-.22.124-.221.125-.219.128-.219.128-.218.13-.217.132-.216.132-.216.133-.214.135-.213.136-.213.137-.211.138-.211.14-.21.141-.21.143-.208.143-.207.145-.207.145-.205.148-.205.148-.204.15-.202.151-.202.152-.201.152-.2.155-.2.155-.197.157-.198.158-.196.16-.195.16-.195.16-.192.163-.193.164-.191.164-.19.166-.19.168-.188.167-.188.17-.185.17-.186.171-.184.173-.183.173-.182.174-.182.177-.18.176-.178.179-.178.178-.177.18-.175.181-.176.182-.173.184-.173.184-.171.185-.17.187-.17.187-.167.188-.167.19-.166.19-.165.191-.163.193-.163.192-.162.195-.16.195-.158.196-.158.197-.157.199-.156.199-.154.2-.153.2-.152.202-.15.203-.15.203-.149.206-.147.205-.146.207-.145.207-.143.208-.143.21-.14.209-.14.21-.14.213-.136.212-.136.214-.134.214-.134.215-.132.217-.131.217-.13.218-.129.218-.127.22-.126.22-.124.22-.123.223-.123.223-.12.223-.119.224-.118.226-.117.226-.115.225-.114.228-.112.228-.112.23-.11.23-.108.23-.107.23-.106.233-.105.232-.103.234-.102.234-.1.234-.099.236-.097.237-.096.237-.094.238-.094.237-.092.24-.09.24-.09.24-.087.242-.086.242-.084.242-.084.243-.081.244-.08.245-.08.245-.077.245-.075.246-.075.248-.073.248-.072.249-.069.248-.07.25-.066.25-.065.25-.064.252-.063.252-.06.253-.06.253-.057.254-.057.255-.055.255-.053.255-.052.256-.05.257-.049.257-.046.258-.045.258-.045.26-.042.26-.04.26-.04.26-.036.262-.037.26-.034.263-.033.264-.03.263-.03.264-.027.264-.026.266-.025.264-.022.267-.022.267-.02.266-.017.268-.017.268-.014.268-.012.27-.012.27-.01.27-.007.269-.005.27-.006.273-.002.272v.544l.002.272.006.272.005.271.008.27.01.27.01.27.013.269.014.268.017.268.017.268.02.267.022.266.022.267.025.264.026.266.028.265.028.263.031.263.033.264.034.262.037.262.037.26.039.261.04.26.042.26.045.26.045.258.046.258.05.257.05.257.05.256.054.256.055.254.057.255.058.254.058.253.061.253.063.252.064.252.065.25.067.25.069.25.069.249.072.248.073.248.075.248.075.246.077.245.08.245.08.245.081.245.084.243.084.241.086.242.088.241.09.241.09.24.09.24.095.237.094.238.096.238.097.236.1.236.1.234.101.234.103.234.105.232.106.232.107.231.108.23.11.23.112.23.112.228.114.228.115.225.117.226.118.226.119.224.12.223.123.223.123.223.124.22.126.22.127.22.129.218.13.218.13.218.133.216.133.215.135.214.136.214.137.213.139.211.14.211.14.21.143.21.143.207.145.208.146.206.147.205.149.206.15.203.15.203.152.201.153.201.154.2.156.2.157.198.158.197.158.196.16.195.162.195.163.192.163.193.165.191.166.19.167.19.168.188.169.187.17.187.171.185.173.184.173.184.176.182.175.18.177.181.178.178.179.179.18.176.18.176.183.175.183.173.184.173.186.171.185.171.188.169.189.168.188.167.191.166.19.164.194.164.192.162.195.162.195.16.196.159.198.158.198.157.199.155.2.155.2.152.203.153.202.15.204.15.205.148.205.148.207.145.207.145.208.143.21.143.21.14.21.14.212.14.213.136.213.137.214.134.216.133.216.133.217.13.218.13.218.129.22.128.22.126.222.123.221.124.223.121.224.122.224.118.224.118.226.118.227.115.228.114.228.113.228.11.23.11.231.109.231.107.232.106.233.104.233.103.234.102.235.1.235.1.237.096.238.097.237.094.238.093.239.092.24.09.24.09.242.087.242.086.242.085.243.083.244.081.245.081.244.079.247.077.246.076.248.074.247.074.249.07.248.07.25.07.25.066.252.066.25.064.253.062.252.06.254.06.253.058.255.057.255.054.255.053.257.052.257.05.256.049.258.046.259.046.259.043.26.043.26.04.26.04.262.037.262.036.262.034.263.033.263.03.264.03.264.028.265.026.266.024.266.023.266.022.267.019.268.017.268.017.268.014.27.013.27.01.269.01.27.008.272.007.271.004.272.002.272.001.273-.001.272-.002.27-.004.272-.007.271-.007.27-.01.27-.01.268-.014.268-.014.268-.017.268-.017.267-.02.266-.021.266-.023.266-.024.265-.026.264-.028.264-.03.264-.03.263-.033.262-.034.262-.036.262-.037.26-.04.26-.04.26-.043.259-.043.259-.046.257-.046.257-.049.257-.05.256-.052.256-.053.255-.054.254-.057.254-.058.254-.06.252-.06.253-.062.25-.064.252-.066.25-.067.25-.069.248-.07.249-.07.247-.074.247-.074.247-.076.245-.077.246-.079.245-.08.243-.082.244-.083.242-.085.242-.086.241-.087.24-.09.24-.09.24-.092.238-.093.238-.094.236-.097.236-.097.236-.099.236-.1.234-.102.233-.103.233-.104.231-.106.231-.107.231-.109.23-.11.23-.112.227-.111.228-.114.227-.115.225-.118.225-.118.225-.118.223-.122.222-.121.222-.124.221-.123.221-.126.22-.128.217-.128.219-.13.216-.131.217-.132.215-.134.215-.134.213-.137.212-.137.212-.138.211-.14.21-.14.21-.144.208-.143.207-.145.206-.145.206-.148.205-.148.204-.15.202-.15.202-.153.201-.152.2-.155.199-.155.198-.157.198-.158.196-.16.195-.16.194-.16.193-.163.193-.164.19-.164.191-.166.189-.167.189-.168.187-.169.186-.17.185-.172.185-.173.182-.173.183-.175.18-.176.18-.176.18-.179.177-.178.178-.18.175-.181.175-.183.174-.183.172-.184.172-.185.17-.187.169-.187.168-.188.167-.19.166-.19.165-.191.163-.193.163-.192.162-.195.16-.194.158-.197.158-.197.157-.199.155-.199.155-.2.153-.2.152-.202.15-.203.15-.203.149-.206.147-.205.145-.206.146-.208.143-.209.142-.208.141-.21.14-.21.139-.212.137-.213.136-.214.135-.214.133-.215.132-.216.131-.218.13-.218.129-.218.127-.22.125-.22.125-.22.123-.223.122-.223.121-.223.119-.224.118-.226.117-.226.115-.225.114-.228.112-.228.111-.23.11-.23.109-.23.107-.23.106-.233.104-.232.103-.234.102-.234.1-.234.1-.237.096-.235.096-.238.095-.238.094-.238.092-.24.09-.239.089-.24.088-.242.085-.242.085-.241.083-.243.082-.245.08-.245.08-.245.077-.245.075-.246.074-.248.073-.247.073-.25.069-.248.069-.25.067-.25.065-.25.064-.252.063-.253.06-.252.06-.253.057-.254.057-.255.054-.254.054-.256.051-.256.05-.257.048-.257.048-.258.045-.258.044-.26.042-.259.04-.26.04-.261.037-.261.036-.262.034-.262.033-.264.031-.263.03-.263.027-.265.026-.264.024-.266.023-.267.022-.266.02-.267.017-.268.016-.268.015-.268.012-.27.012-.27.009-.269.008-.27.005-.27.005-.273.002-.272L217 65v-.272l-.003-.272-.005-.272-.005-.271-.008-.27-.01-.27-.01-.27-.013-.269-.015-.268-.016-.268-.018-.268-.02-.266-.02-.267-.024-.267-.024-.265-.026-.265-.028-.264-.029-.264-.03-.263-.034-.264-.034-.262-.036-.261-.037-.262-.04-.261-.04-.26-.042-.26-.044-.259-.045-.258-.048-.258-.048-.257-.05-.257-.051-.256-.054-.255-.054-.255-.057-.255-.058-.254-.059-.253-.06-.252-.063-.253-.064-.252-.065-.25-.067-.25-.07-.25-.068-.248-.073-.25-.073-.247-.074-.248-.075-.246-.078-.245-.079-.245-.08-.245-.082-.244-.083-.243-.085-.242-.085-.242-.088-.241-.09-.241-.09-.24-.091-.238-.094-.24-.095-.237-.096-.237-.097-.236-.099-.237-.1-.234-.102-.234-.103-.234-.104-.232-.106-.232-.107-.231-.108-.23-.11-.23-.112-.23-.112-.228-.114-.228-.115-.225-.117-.226-.118-.226-.119-.224-.12-.223-.123-.223-.123-.222-.125-.22-.125-.221-.127-.22-.13-.218-.129-.218-.131-.217-.132-.217-.133-.215-.135-.214-.136-.214-.137-.212-.14-.212-.139-.211-.14-.21-.143-.208-.143-.209-.146-.207-.145-.207-.147-.205-.149-.206-.15-.203-.15-.203-.152-.201-.153-.201-.155-.2-.155-.2-.157-.198-.158-.197-.159-.196-.16-.195-.161-.195-.163-.192-.163-.193-.165-.191-.166-.19-.167-.19-.168-.188-.17-.187-.17-.187-.171-.185-.172-.184-.174-.183-.175-.183-.175-.18-.178-.18-.177-.18-.18-.178-.18-.176-.18-.177-.183-.174-.182-.173-.185-.173-.185-.17-.186-.172-.187-.169-.189-.167-.189-.168-.19-.166-.191-.164-.193-.164-.193-.162-.194-.161-.195-.16-.196-.16-.198-.158-.198-.157-.199-.155-.2-.155-.201-.152-.202-.152-.202-.151-.204-.15-.205-.148-.206-.148-.206-.145-.207-.145-.208-.143-.21-.143-.21-.14-.211-.14-.212-.14-.212-.136-.213-.136-.215-.135-.215-.134-.217-.131-.216-.132-.219-.13-.218-.128-.219-.128-.22-.125-.222-.124-.222-.124-.222-.121-.223-.122-.225-.118-.225-.118-.225-.118-.227-.115-.228-.114-.228-.111-.229-.112-.23-.11-.23-.108-.232-.108-.231-.105-.233-.105-.233-.103-.234-.102-.236-.1-.236-.099-.236-.097-.237-.097-.237-.094-.238-.093-.24-.092-.24-.09-.24-.09-.24-.087-.243-.086-.242-.085-.244-.083-.243-.081-.245-.08-.245-.08-.246-.077-.247-.076-.247-.074-.247-.073-.249-.071-.248-.07-.25-.07-.25-.066-.252-.065-.25-.065-.253-.062-.252-.06-.254-.06-.254-.058-.254-.057-.255-.053-.256-.054-.255-.052-.258-.05-.257-.049-.257-.046-.26-.046-.258-.043-.26-.043-.26-.04-.26-.04-.262-.036-.262-.037-.262-.034-.263-.033-.264-.03-.264-.03-.264-.028-.265-.026-.266-.024-.266-.023-.266-.021-.267-.02-.268-.017-.268-.017-.268-.014-.269-.013-.27-.01-.269-.01-.271-.008-.271-.006-.271-.005-.272-.002L175 23l-.272.001z" fill="#453f78"/>
      <path d="M162.56 44.843l5.406 8.274c.524.832.4 2.323.158 2.829-.388.812-1.463 2.784-1.881 3.55a3.333 3.333 0 0 0-.286.711c-.356 1.219-.824 2.223 5.335 8.504l-4.654 4.986s-9.014-8.402-12.085-19.211c-.756-2.658-1.564-7.013 3.664-9.497 1.602-.76 3.367-1.71 4.344-.146z" fill="#453f78"/>
      <path d="M195.158 77.44l-8.275-5.405c-.833-.523-2.323-.4-2.83-.158-.811.388-2.784 1.463-3.55 1.881a3.334 3.334 0 0 1-.711.286c-1.218.356-2.222.825-8.504-5.334l-4.986 4.653s8.402 9.014 19.212 12.085c2.658.755 7.013 1.563 9.497-3.664.76-1.602 1.71-3.368.147-4.344z" fill="#453f78"/>
    </g>
  </g>
</svg>
